<svg width="17" height="16" viewBox="0 0 17 16" fill="none" xmlns="http://www.w3.org/2000/svg">
<path d="M7.83334 11.3333H9.16668V7.33331H7.83334V11.3333ZM8.50001 5.99998C8.6889 5.99998 8.84734 5.93598 8.97534 5.80798C9.10334 5.67998 9.16712 5.52176 9.16668 5.33331C9.16623 5.14487 9.10223 4.98665 8.97468 4.85865C8.84712 4.73065 8.6889 4.66665 8.50001 4.66665C8.31112 4.66665 8.1529 4.73065 8.02534 4.85865C7.89779 4.98665 7.83379 5.14487 7.83334 5.33331C7.8329 5.52176 7.8969 5.6802 8.02534 5.80865C8.15379 5.93709 8.31201 6.00087 8.50001 5.99998ZM8.50001 14.6666C7.57779 14.6666 6.71112 14.4915 5.90001 14.1413C5.0889 13.7911 4.38334 13.3162 3.78334 12.7166C3.18334 12.1171 2.70846 11.4115 2.35868 10.6C2.0089 9.78842 1.83379 8.92176 1.83334 7.99998C1.8329 7.0782 2.00801 6.21154 2.35868 5.39998C2.70934 4.58842 3.18423 3.88287 3.78334 3.28331C4.38246 2.68376 5.08801 2.20887 5.90001 1.85865C6.71201 1.50842 7.57868 1.33331 8.50001 1.33331C9.42134 1.33331 10.288 1.50842 11.1 1.85865C11.912 2.20887 12.6176 2.68376 13.2167 3.28331C13.8158 3.88287 14.2909 4.58842 14.642 5.39998C14.9931 6.21154 15.168 7.0782 15.1667 7.99998C15.1653 8.92176 14.9902 9.78842 14.6413 10.6C14.2925 11.4115 13.8176 12.1171 13.2167 12.7166C12.6158 13.3162 11.9102 13.7913 11.1 14.142C10.2898 14.4926 9.42312 14.6675 8.50001 14.6666Z" fill="#C1E0FF"/>
</svg>
